<svg xmlns="http://www.w3.org/2000/svg" version="1.1" xmlns:xlink="http://www.w3.org/1999/xlink" width="1000" height="1000"><g clip-path="url(#SvgjsClipPath1029)"><rect width="1000" height="1000" fill="#ffffff"></rect><g transform="matrix(9.58904109589041,0,0,9.58904109589041,150,150)"><svg xmlns="http://www.w3.org/2000/svg" version="1.1" xmlns:xlink="http://www.w3.org/1999/xlink" width="73" height="73"><svg width="73" height="73" viewBox="0 0 73 73" fill="none" xmlns="http://www.w3.org/2000/svg">
<path d="M68.667 30.4355C71.0054 30.4356 72.9072 32.3371 72.9072 34.6826C72.9066 37.0277 71.005 38.9297 68.667 38.9297H54.8174C51.0464 38.9297 46.4221 40.7594 49.084 43.4336L62.3789 56.9648C64.0322 58.6234 64.032 61.3121 62.3789 62.9707C60.726 64.6277 58.0489 64.6268 56.3955 62.9707L42.8018 49.3652C40.1355 46.6909 39.036 51.8279 39.0352 55.6113V68.6602C39.0345 71.0052 37.132 72.9072 34.7939 72.9072C32.4576 72.9052 30.5631 71.004 30.5625 68.6602V34.6826C30.5625 32.3382 32.4572 30.4376 34.7939 30.4355H68.667ZM68.6494 64.3916C71.0009 64.3917 72.9071 66.2979 72.9072 68.6494C72.9071 71.0009 71.001 72.9072 68.6494 72.9072C66.2979 72.9071 64.3917 71.0009 64.3916 68.6494C64.3917 66.2979 66.2979 64.3917 68.6494 64.3916ZM38.1045 0C40.4419 0.000244239 42.3363 1.90261 42.3369 4.24707V17.2959C42.3391 21.0763 46.8973 22.9775 49.5645 20.3066L58.6348 11.1992C60.2883 9.54058 62.9724 9.54058 64.626 11.1992C66.2782 12.8573 66.2776 15.5456 64.626 17.2041L56.9746 24.8779C55.4785 26.3789 53.3738 27.3163 51.2578 27.3164H32.3291C29.5101 27.3201 27.2266 29.6151 27.2256 32.4434L27.2178 51.6465C27.2165 53.6391 26.3323 55.6124 24.9277 57.0215L16.7207 65.2588C15.0671 66.9167 12.3828 66.9172 10.7295 65.2588C9.07758 63.601 9.07883 60.9115 10.7295 59.2529L20.2305 49.7217C22.8933 47.0459 21.0056 42.4724 17.2354 42.4717H4.23242C1.89422 42.4717 1.01474e-05 40.57 0 38.2246C0.00205952 35.881 1.89549 33.9775 4.23242 33.9775H17.2354C21.0054 33.9768 22.8925 29.4112 20.2305 26.7354L10.7295 17.2041C9.07871 15.5457 9.07806 12.8572 10.7295 11.1992C12.383 9.54064 15.0672 9.54075 16.7207 11.1992C16.7662 11.2449 23.3851 17.8838 26.6455 21.1533C29.9169 24.4329 33.8724 22.7559 33.873 18.1504C33.8735 13.5442 33.873 4.24707 33.873 4.24707C33.8739 1.90285 35.7674 0.000400941 38.1045 0Z" fill="#161616"></path>
<path d="M68.667 30.4355C71.0054 30.4356 72.9072 32.3371 72.9072 34.6826C72.9066 37.0277 71.005 38.9297 68.667 38.9297H54.8174C51.0464 38.9297 46.4221 40.7594 49.084 43.4336L62.3789 56.9648C64.0322 58.6234 64.032 61.3121 62.3789 62.9707C60.726 64.6277 58.0489 64.6268 56.3955 62.9707L42.8018 49.3652C40.1355 46.6909 39.036 51.8279 39.0352 55.6113V68.6602C39.0345 71.0052 37.132 72.9072 34.7939 72.9072C32.4576 72.9052 30.5631 71.004 30.5625 68.6602V34.6826C30.5625 32.3382 32.4572 30.4376 34.7939 30.4355H68.667ZM68.6494 64.3916C71.0009 64.3917 72.9071 66.2979 72.9072 68.6494C72.9071 71.0009 71.001 72.9072 68.6494 72.9072C66.2979 72.9071 64.3917 71.0009 64.3916 68.6494C64.3917 66.2979 66.2979 64.3917 68.6494 64.3916ZM38.1045 0C40.4419 0.000244239 42.3363 1.90261 42.3369 4.24707V17.2959C42.3391 21.0763 46.8973 22.9775 49.5645 20.3066L58.6348 11.1992C60.2883 9.54058 62.9724 9.54058 64.626 11.1992C66.2782 12.8573 66.2776 15.5456 64.626 17.2041L56.9746 24.8779C55.4785 26.3789 53.3738 27.3163 51.2578 27.3164H32.3291C29.5101 27.3201 27.2266 29.6151 27.2256 32.4434L27.2178 51.6465C27.2165 53.6391 26.3323 55.6124 24.9277 57.0215L16.7207 65.2588C15.0671 66.9167 12.3828 66.9172 10.7295 65.2588C9.07758 63.601 9.07883 60.9115 10.7295 59.2529L20.2305 49.7217C22.8933 47.0459 21.0056 42.4724 17.2354 42.4717H4.23242C1.89422 42.4717 1.01474e-05 40.57 0 38.2246C0.00205952 35.881 1.89549 33.9775 4.23242 33.9775H17.2354C21.0054 33.9768 22.8925 29.4112 20.2305 26.7354L10.7295 17.2041C9.07871 15.5457 9.07806 12.8572 10.7295 11.1992C12.383 9.54064 15.0672 9.54075 16.7207 11.1992C16.7662 11.2449 23.3851 17.8838 26.6455 21.1533C29.9169 24.4329 33.8724 22.7559 33.873 18.1504C33.8735 13.5442 33.873 4.24707 33.873 4.24707C33.8739 1.90285 35.7674 0.000400941 38.1045 0Z" stroke="#161616"></path>
</svg></svg></g></g><defs><clipPath id="SvgjsClipPath1029"><rect width="1000" height="1000" x="0" y="0" rx="200" ry="200"></rect></clipPath></defs></svg>