<svg width="751" height="113" viewBox="0 0 751 113" fill="none" xmlns="http://www.w3.org/2000/svg">
<path d="M127.137 86.414C128.942 86.414 130.405 87.8772 130.405 89.6821V109.163C130.405 110.968 128.942 112.431 127.137 112.431H3.26807C1.46332 112.431 0.000249214 110.968 0 109.163V89.6821C7.88949e-08 87.8772 1.46317 86.414 3.26807 86.414H37.6084C42.441 96.8146 52.9797 104.026 65.2034 104.026C77.4269 104.026 87.9643 96.8144 92.7969 86.414H127.137Z" fill="#161616"/>
<path d="M74.9757 0C76.7805 0.000138123 78.2438 1.46325 78.2438 3.26807V33.7195L99.7751 12.1867C101.051 10.9104 103.122 10.9103 104.398 12.1867L118.219 26.0089C119.494 27.2853 119.493 29.3542 118.217 30.6302L96.6858 52.1631H127.139C128.943 52.1635 130.407 53.6265 130.407 55.4312V74.9758C130.407 76.7803 128.943 78.2434 127.139 78.2438H95.2656C95.4961 76.7344 95.615 75.1885 95.615 73.6146C95.615 56.8182 81.9997 43.2017 65.2034 43.2014C48.4069 43.2014 34.7903 56.818 34.7903 73.6146C34.7903 75.1884 34.9092 76.7344 35.1397 78.2438H3.26807C1.46324 78.2438 0.000121202 76.7806 0 74.9758V55.4312C7.88949e-08 53.6262 1.46317 52.1631 3.26807 52.1631H33.7195L12.1867 30.6302C10.9105 29.354 10.9107 27.2852 12.1867 26.0089L26.0073 12.1867C27.2836 10.9107 29.3525 10.9105 30.6286 12.1867L52.1615 33.7227V3.26807C52.1615 1.46343 53.625 0.000424427 55.4296 0H74.9757Z" fill="#161616"/>
<circle cx="65.2029" cy="73.6108" r="17.1425" fill="#161616"/>
<path d="M171.049 76.1073V57.7879H192.198C196.468 57.7879 200.042 56.9439 202.922 55.256C205.9 53.568 208.134 51.2347 209.624 48.2559C211.212 45.2771 212.007 41.8516 212.007 37.9792C212.007 34.1068 211.212 30.6812 209.624 27.7025C208.134 24.7237 205.9 22.44 202.922 20.8513C200.042 19.1633 196.468 18.3194 192.198 18.3194H171.049V0H190.411C199.546 0 207.29 1.48938 213.645 4.46813C220.099 7.4469 225.014 11.7165 228.39 17.2768C231.766 22.7379 233.454 29.2415 233.454 36.7877V39.1707C233.454 46.7169 231.766 53.2701 228.39 58.8305C225.014 64.2915 220.099 68.5611 213.645 71.6392C207.29 74.6179 199.546 76.1073 190.411 76.1073H171.049ZM156.129 112.431C154.334 112.431 152.878 110.975 152.878 109.18V3.25084C152.878 1.45545 154.334 0 156.129 0H174.028V109.18C174.028 110.975 172.572 112.431 170.777 112.431H156.129Z" fill="#161616"/>
<path d="M275.066 112.299C267.917 112.299 261.612 111.157 256.151 108.874C250.69 106.59 246.072 103.512 242.299 99.6395C238.526 95.6678 235.647 91.1997 233.661 86.2351C231.774 81.2705 230.831 76.1073 230.831 70.7455V67.6178C230.831 62.0575 231.824 56.795 233.81 51.8304C235.895 46.7665 238.824 42.2984 242.597 38.426C246.47 34.4543 251.136 31.3763 256.597 29.1918C262.058 26.9081 268.215 25.7663 275.066 25.7663C281.917 25.7663 288.073 26.9081 293.534 29.1918C298.995 31.3763 303.612 34.4543 307.385 38.426C311.258 42.2984 314.187 46.7665 316.173 51.8304C318.158 56.795 319.151 62.0575 319.151 67.6178V70.7455C319.151 76.1073 318.158 81.2705 316.173 86.2351C314.286 91.1997 311.456 95.6678 307.683 99.6395C303.91 103.512 299.293 106.59 293.832 108.874C288.371 111.157 282.115 112.299 275.066 112.299ZM275.066 94.5756C280.13 94.5756 284.399 93.4834 287.874 91.299C291.35 89.0152 293.981 85.9868 295.768 82.2138C297.555 78.3414 298.449 73.9725 298.449 69.1072C298.449 64.1426 297.506 59.7738 295.619 56.0007C293.832 52.1283 291.151 49.0999 287.577 46.9155C284.101 44.6317 279.931 43.4899 275.066 43.4899C270.2 43.4899 265.98 44.6317 262.406 46.9155C258.931 49.0999 256.25 52.1283 254.363 56.0007C252.477 59.7738 251.534 64.1426 251.534 69.1072C251.534 73.9725 252.427 78.3414 254.214 82.2138C256.101 85.9868 258.782 89.0152 262.257 91.299C265.732 93.4834 270.002 94.5756 275.066 94.5756Z" fill="#161616"/>
<path d="M332.487 112.431C330.692 112.431 329.236 110.975 329.236 109.18V34.2139C329.236 31.1113 331.751 28.5961 334.854 28.5961H349.938V109.18C349.938 110.975 348.483 112.431 346.688 112.431H332.487ZM328.054 42.4452C326.105 42.299 324.372 41.1503 323.478 39.4119L319.601 31.8708C318.832 30.3753 319.917 28.5961 321.599 28.5961H349.938V38.0309C349.938 41.299 347.16 43.8773 343.901 43.633L328.054 42.4452ZM336.832 22.7962C332.761 22.7962 329.733 21.7537 327.747 19.6685C325.86 17.4841 324.917 14.8032 324.917 11.6259C324.917 8.24995 325.86 5.51942 327.747 3.43429C329.733 1.34915 332.761 0.306587 336.832 0.306587C340.903 0.306587 343.882 1.34915 345.768 3.43429C347.655 5.51942 348.598 8.24995 348.598 11.6259C348.598 14.8032 347.655 17.4841 345.768 19.6685C343.882 21.7537 340.903 22.7962 336.832 22.7962Z" fill="#161616"/>
<path d="M365.133 112.431C363.338 112.431 361.883 110.975 361.883 109.18V31.8469C361.883 30.0515 363.338 28.5961 365.133 28.5961H375.015C376.81 28.5961 378.266 30.0515 378.266 31.8469V63.2986H376.776C376.776 55.0574 377.869 48.2062 380.053 42.7452C382.237 37.1848 385.464 33.0146 389.734 30.2344C394.103 27.4542 399.514 26.0641 405.968 26.0641H406.862C416.493 26.0641 423.791 29.1918 428.756 35.4472C433.72 41.6033 436.203 50.8375 436.203 63.1497V109.18C436.203 110.975 434.747 112.431 432.952 112.431H418.751C416.956 112.431 415.5 110.975 415.5 109.18V61.3624C415.5 56.3978 414.061 52.3765 411.181 49.2985C408.401 46.2204 404.528 44.6814 399.564 44.6814C394.5 44.6814 390.379 46.27 387.202 49.4474C384.124 52.5254 382.585 56.6957 382.585 61.9582V109.18C382.585 110.975 381.13 112.431 379.334 112.431H365.133Z" fill="#161616"/>
<path d="M481.694 112.254C474.247 112.254 468.091 111.311 463.226 109.424C458.459 107.438 454.885 104.162 452.502 99.5943C450.119 94.9276 448.927 88.6722 448.927 80.8281L449.072 20.6352C449.075 19.5591 449.61 18.5541 450.501 17.9509L463.353 9.25083C465.514 7.7879 468.431 9.33949 468.426 11.9492L468.289 82.1686C468.289 86.1403 469.332 89.2183 471.417 91.4027C473.602 93.4879 476.68 94.5304 480.651 94.5304H490.06C491.856 94.5304 493.311 95.9859 493.311 97.7813V109.003C493.311 110.799 491.856 112.254 490.06 112.254H481.694ZM439.37 43.7878C437.574 43.7878 436.119 42.3323 436.119 40.5369V31.8469C436.119 30.0515 437.574 28.5961 439.37 28.5961H490.06C491.856 28.5961 493.311 30.0515 493.311 31.8469V40.5369C493.311 42.3323 491.856 43.7878 490.06 43.7878H439.37Z" fill="#161616"/>
<path d="M502.022 112.257C500.227 112.257 498.772 110.801 498.772 109.006V13.5898C498.772 12.3821 499.441 11.274 500.51 10.7122L514.711 3.24828C516.875 2.11051 519.474 3.68037 519.474 6.12586V64.1923H515.9C515.9 56.0503 516.942 49.1495 519.027 43.4899C521.112 37.8302 524.19 33.511 528.261 30.5323C532.432 27.5535 537.694 26.0641 544.049 26.0641H544.942C554.177 26.0641 561.177 29.2415 565.943 35.5962C570.709 41.9509 573.092 51.185 573.092 63.2986V109.006C573.092 110.801 571.636 112.257 569.841 112.257H555.64C553.845 112.257 552.389 110.801 552.389 109.006V61.3624C552.389 56.1993 550.9 52.1283 547.921 49.1495C545.042 46.1708 541.219 44.6814 536.453 44.6814C531.389 44.6814 527.268 46.3693 524.091 49.7453C521.013 53.0219 519.474 57.3411 519.474 62.7029V109.006C519.474 110.801 518.019 112.257 516.223 112.257H502.022Z" fill="#161616"/>
<path d="M619.625 112.299C612.675 112.299 606.569 111.108 601.306 108.725C596.143 106.342 591.824 103.164 588.349 99.1927C584.973 95.1217 582.391 90.6039 580.604 85.6393C578.916 80.6747 578.072 75.6108 578.072 70.4477V67.6178C578.072 62.2561 578.916 57.0929 580.604 52.1283C582.391 47.0644 584.973 42.5963 588.349 38.7239C591.824 34.7522 596.093 31.6245 601.157 29.3408C606.221 26.9578 612.079 25.7663 618.732 25.7663C627.47 25.7663 634.768 27.7025 640.626 31.5748C646.583 35.3479 651.051 40.3622 654.03 46.6176C657.009 52.7737 658.498 59.4262 658.498 66.5753C658.498 70.6881 655.164 74.0222 651.051 74.0222H586.859V61.3624H645.541L639.136 67.6178C639.136 62.4547 638.392 58.0362 636.902 54.3624C635.413 50.6886 633.129 47.8587 630.051 45.8729C627.072 43.887 623.299 42.8941 618.732 42.8941C614.164 42.8941 610.292 43.9367 607.115 46.0218C603.937 48.107 601.505 51.1354 599.817 55.107C598.228 58.9794 597.434 63.6462 597.434 69.1072C597.434 74.1711 598.228 78.6889 599.817 82.6606C601.405 86.533 603.838 89.611 607.115 91.8947C610.391 94.0791 614.562 95.1713 619.625 95.1713C624.689 95.1713 628.81 94.1784 631.987 92.1926C634.34 90.6488 636.066 88.86 637.167 86.8263C637.85 85.5637 639.077 84.5968 640.513 84.5968H653.137C655.206 84.5968 656.757 86.5115 656.112 88.4779C654.808 92.4511 652.873 96.0227 650.307 99.1927C646.931 103.363 642.612 106.59 637.349 108.874C632.186 111.157 626.278 112.299 619.625 112.299Z" fill="#161616"/>
<path d="M697.389 112.15C691.729 112.15 686.516 111.108 681.75 109.023C676.984 106.937 672.863 104.008 669.388 100.235C665.913 96.4621 663.232 92.0933 661.346 87.1287C659.459 82.0648 658.516 76.6038 658.516 70.7455V67.6178C658.516 61.8589 659.409 56.4475 661.197 51.3836C663.083 46.3197 665.665 41.9012 668.941 38.1281C672.317 34.355 676.339 31.4259 681.005 29.3408C685.771 27.1564 691.034 26.0641 696.793 26.0641C703.148 26.0641 708.708 27.4542 713.474 30.2344C718.339 32.9153 722.212 36.9863 725.091 42.4473C727.97 47.9084 729.559 54.7595 729.857 63.0008L723.751 55.8517V13.1815C723.751 11.954 724.442 10.8311 725.538 10.2786L739.739 3.12079C741.901 2.031 744.453 3.60251 744.453 6.02372V108.899C744.453 110.695 742.997 112.15 741.202 112.15H731.321C729.525 112.15 728.07 110.695 728.07 108.899V75.0647H731.644C731.346 83.306 729.658 90.2068 726.58 95.7671C723.502 101.228 719.431 105.349 714.367 108.129C709.403 110.81 703.743 112.15 697.389 112.15ZM702.006 94.7245C706.077 94.7245 709.8 93.8309 713.176 92.0436C716.552 90.1571 719.233 87.4762 721.219 84.001C723.304 80.4265 724.346 76.2562 724.346 71.4902V65.5327C724.346 60.7667 723.304 56.795 721.219 53.6177C719.133 50.341 716.403 47.8587 713.027 46.1708C709.651 44.3835 705.977 43.4899 702.006 43.4899C697.538 43.4899 693.566 44.5821 690.091 46.7665C686.715 48.8516 684.034 51.8304 682.048 55.7028C680.161 59.5752 679.218 64.093 679.218 69.2562C679.218 74.4193 680.211 78.9371 682.197 82.8095C684.183 86.5826 686.864 89.5117 690.239 91.5968C693.715 93.682 697.637 94.7245 702.006 94.7245Z" fill="#161616"/>
</svg>
