<svg width="389" height="74" viewBox="0 0 389 74" fill="none" xmlns="http://www.w3.org/2000/svg">
<path d="M68.667 30.4355C71.0054 30.4356 72.9072 32.3371 72.9072 34.6826C72.9066 37.0277 71.005 38.9297 68.667 38.9297H54.8174C51.0464 38.9297 46.4221 40.7594 49.084 43.4336L62.3789 56.9648C64.0322 58.6234 64.032 61.3121 62.3789 62.9707C60.726 64.6277 58.0489 64.6268 56.3955 62.9707L42.8018 49.3652C40.1355 46.6909 39.036 51.8279 39.0352 55.6113V68.6602C39.0345 71.0052 37.132 72.9072 34.7939 72.9072C32.4576 72.9052 30.5631 71.004 30.5625 68.6602V34.6826C30.5625 32.3382 32.4572 30.4376 34.7939 30.4355H68.667ZM68.6494 64.3916C71.0009 64.3917 72.9071 66.2979 72.9072 68.6494C72.9071 71.0009 71.001 72.9072 68.6494 72.9072C66.2979 72.9071 64.3917 71.0009 64.3916 68.6494C64.3917 66.2979 66.2979 64.3917 68.6494 64.3916ZM38.1045 0C40.4419 0.000244239 42.3363 1.90261 42.3369 4.24707V17.2959C42.3391 21.0763 46.8973 22.9775 49.5645 20.3066L58.6348 11.1992C60.2883 9.54058 62.9724 9.54058 64.626 11.1992C66.2782 12.8573 66.2776 15.5456 64.626 17.2041L56.9746 24.8779C55.4785 26.3789 53.3738 27.3163 51.2578 27.3164H32.3291C29.5101 27.3201 27.2266 29.6151 27.2256 32.4434L27.2178 51.6465C27.2165 53.6391 26.3323 55.6124 24.9277 57.0215L16.7207 65.2588C15.0671 66.9167 12.3828 66.9172 10.7295 65.2588C9.07758 63.601 9.07883 60.9115 10.7295 59.2529L20.2305 49.7217C22.8933 47.0459 21.0056 42.4724 17.2354 42.4717H4.23242C1.89422 42.4717 1.01474e-05 40.57 0 38.2246C0.00205952 35.881 1.89549 33.9775 4.23242 33.9775H17.2354C21.0054 33.9768 22.8925 29.4112 20.2305 26.7354L10.7295 17.2041C9.07871 15.5457 9.07806 12.8572 10.7295 11.1992C12.383 9.54064 15.0672 9.54075 16.7207 11.1992C16.7662 11.2449 23.3851 17.8838 26.6455 21.1533C29.9169 24.4329 33.8724 22.7559 33.873 18.1504C33.8735 13.5442 33.873 4.24707 33.873 4.24707C33.8739 1.90285 35.7674 0.000400941 38.1045 0Z" fill="#161616"/>
<path d="M68.667 30.4355C71.0054 30.4356 72.9072 32.3371 72.9072 34.6826C72.9066 37.0277 71.005 38.9297 68.667 38.9297H54.8174C51.0464 38.9297 46.4221 40.7594 49.084 43.4336L62.3789 56.9648C64.0322 58.6234 64.032 61.3121 62.3789 62.9707C60.726 64.6277 58.0489 64.6268 56.3955 62.9707L42.8018 49.3652C40.1355 46.6909 39.036 51.8279 39.0352 55.6113V68.6602C39.0345 71.0052 37.132 72.9072 34.7939 72.9072C32.4576 72.9052 30.5631 71.004 30.5625 68.6602V34.6826C30.5625 32.3382 32.4572 30.4376 34.7939 30.4355H68.667ZM68.6494 64.3916C71.0009 64.3917 72.9071 66.2979 72.9072 68.6494C72.9071 71.0009 71.001 72.9072 68.6494 72.9072C66.2979 72.9071 64.3917 71.0009 64.3916 68.6494C64.3917 66.2979 66.2979 64.3917 68.6494 64.3916ZM38.1045 0C40.4419 0.000244239 42.3363 1.90261 42.3369 4.24707V17.2959C42.3391 21.0763 46.8973 22.9775 49.5645 20.3066L58.6348 11.1992C60.2883 9.54058 62.9724 9.54058 64.626 11.1992C66.2782 12.8573 66.2776 15.5456 64.626 17.2041L56.9746 24.8779C55.4785 26.3789 53.3738 27.3163 51.2578 27.3164H32.3291C29.5101 27.3201 27.2266 29.6151 27.2256 32.4434L27.2178 51.6465C27.2165 53.6391 26.3323 55.6124 24.9277 57.0215L16.7207 65.2588C15.0671 66.9167 12.3828 66.9172 10.7295 65.2588C9.07758 63.601 9.07883 60.9115 10.7295 59.2529L20.2305 49.7217C22.8933 47.0459 21.0056 42.4724 17.2354 42.4717H4.23242C1.89422 42.4717 1.01474e-05 40.57 0 38.2246C0.00205952 35.881 1.89549 33.9775 4.23242 33.9775H17.2354C21.0054 33.9768 22.8925 29.4112 20.2305 26.7354L10.7295 17.2041C9.07871 15.5457 9.07806 12.8572 10.7295 11.1992C12.383 9.54064 15.0672 9.54075 16.7207 11.1992C16.7662 11.2449 23.3851 17.8838 26.6455 21.1533C29.9169 24.4329 33.8724 22.7559 33.873 18.1504C33.8735 13.5442 33.873 4.24707 33.873 4.24707C33.8739 1.90285 35.7674 0.000400941 38.1045 0Z" stroke="#161616"/>
<mask id="path-2-outside-1_171_7738" maskUnits="userSpaceOnUse" x="87.9075" y="3.91492" width="301" height="70" fill="black">
<rect fill="white" x="87.9075" y="3.91492" width="301" height="70"/>
<path d="M102.153 65.4244C102.153 65.9404 102.44 66.3562 103.013 66.6715C103.587 66.9583 104.318 67.1876 105.207 67.3596C105.694 67.503 106.081 67.632 106.368 67.7467C106.683 67.8327 106.913 67.9044 107.056 67.9617C107.601 68.3058 107.873 68.8362 107.873 69.5529C107.873 70.1264 107.644 70.6138 107.185 71.0152C106.726 71.3879 105.895 71.5742 104.691 71.5742H92.348C91.3445 71.5742 90.5704 71.4596 90.0256 71.2302C89.4809 71.0008 89.2085 70.4417 89.2085 69.5529C89.2085 69.2089 89.2372 68.9365 89.2945 68.7358C89.3805 68.5351 89.5096 68.3631 89.6816 68.2198C89.8536 68.0764 90.0686 67.9474 90.3267 67.8327C90.6134 67.718 90.9431 67.589 91.3158 67.4457C91.9466 67.1876 92.4483 66.9583 92.821 66.7576C93.2224 66.5569 93.5234 66.3275 93.7241 66.0695C93.9248 65.8114 94.0539 65.4961 94.1112 65.1233C94.1685 64.7506 94.1972 64.2632 94.1972 63.6611V13.2581C94.1972 12.7707 93.8818 12.3406 93.2511 11.9679C93.1651 11.9106 92.9644 11.8389 92.649 11.7529C92.3623 11.6669 91.9752 11.5522 91.4878 11.4088C91.0004 11.2655 90.6134 11.1365 90.3267 11.0218C90.0686 10.9071 89.8679 10.8067 89.7246 10.7207C89.1798 10.348 88.9075 9.8176 88.9075 9.12951C88.9075 8.47008 89.1225 7.96834 89.5526 7.6243C89.9826 7.28025 90.7997 7.10822 92.0039 7.10822H114.926C117.076 7.10822 118.954 7.16556 120.56 7.28025C122.194 7.39493 123.542 7.56695 124.602 7.79632C125.692 8.02569 126.753 8.34106 127.785 8.74245C128.817 9.11517 129.835 9.55957 130.838 10.0756C136.658 13 139.569 17.6447 139.569 24.0096C139.569 27.9948 138.221 31.6933 135.526 35.1051C133.118 38.1156 129.95 40.5812 126.022 42.5022C122.639 44.1364 118.926 45.2832 114.883 45.9426C110.841 46.6021 106.597 46.9318 102.153 46.9318V65.4244ZM102.153 42.3301C109.292 42.3301 115.399 41.1546 120.474 38.8037C127.211 35.7072 130.58 31.0769 130.58 24.9127C130.58 23.8519 130.437 22.8198 130.15 21.8163C129.892 20.7841 129.519 19.8237 129.032 18.9349C128.545 18.0461 127.943 17.229 127.226 16.4835C126.538 15.7094 125.749 15.05 124.86 14.5053C123.14 13.4158 121.205 12.6703 119.055 12.2689C116.933 11.8676 114.697 11.6669 112.346 11.6669C110.798 11.6669 109.321 11.7385 107.916 11.8819C106.54 12.0252 105.35 12.3693 104.347 12.914C103.831 13.1721 103.429 13.4588 103.142 13.7742C102.856 14.0895 102.641 14.4623 102.497 14.8923C102.354 15.3224 102.254 15.8384 102.196 16.4405C102.168 17.0139 102.153 17.6877 102.153 18.4618V42.3301Z"/>
<path d="M182.279 50.8023C182.279 57.1099 180.143 62.3566 175.871 66.5425C171.599 70.7858 166.309 72.9074 160.002 72.9074C154.009 72.9074 148.906 70.7858 144.691 66.5425C140.506 62.1846 138.413 57.0525 138.413 51.1464C138.413 48.136 138.957 45.3549 140.047 42.8032C141.165 40.2515 142.799 37.8862 144.949 35.7072C149.221 31.4353 154.382 29.2993 160.432 29.2993C166.395 29.2993 171.542 31.3779 175.871 35.5352C180.143 39.6924 182.279 44.7815 182.279 50.8023ZM171.57 62.844C172.803 61.2671 173.72 59.4322 174.323 57.3392C174.953 55.2176 175.269 53.01 175.269 50.7163C175.269 45.871 173.993 41.8714 171.441 38.7176C168.746 35.3058 165.019 33.5999 160.26 33.5999C155.558 33.5999 151.83 35.4492 149.078 39.1477C146.67 42.4735 145.466 46.5877 145.466 51.4904C145.466 56.2784 146.67 60.2493 149.078 63.4031C151.773 66.8436 155.443 68.5638 160.088 68.5638C164.79 68.5638 168.617 66.6572 171.57 62.844Z"/>
<path d="M184.821 17.6877C184.821 16.2542 185.28 15.1073 186.197 14.2472C187.144 13.3584 188.319 12.914 189.724 12.914C191.1 12.914 192.233 13.3441 193.121 14.2042C194.039 15.0357 194.498 16.1395 194.498 17.5157C194.498 19.0639 194.039 20.2824 193.121 21.1712C192.233 22.06 190.985 22.5044 189.38 22.5044C188.004 22.5044 186.9 22.06 186.068 21.1712C185.237 20.2537 184.821 19.0926 184.821 17.6877ZM185.853 71.5742C184.936 71.5742 184.205 71.4596 183.66 71.2302C183.144 71.0008 182.886 70.4704 182.886 69.639C182.886 68.6642 183.474 68.0477 184.649 67.7897C185.825 67.4457 186.613 66.8579 187.014 66.0265C187.416 65.195 187.617 63.8762 187.617 62.0699V41.8141C187.617 40.954 187.574 40.2228 187.488 39.6208C187.402 39.0187 187.23 38.5169 186.971 38.1156C186.713 37.6855 186.341 37.3414 185.853 37.0834C185.366 36.8254 184.721 36.6103 183.918 36.4383C183.345 36.295 182.872 36.1373 182.499 35.9653C182.155 35.7646 181.983 35.3918 181.983 34.8471C181.983 34.5891 182.011 34.3597 182.069 34.159C182.155 33.9583 182.298 33.7576 182.499 33.5569C182.728 33.3562 183.029 33.1555 183.402 32.9548C183.803 32.7541 184.334 32.5104 184.993 32.2237C185.653 31.9084 186.197 31.6503 186.627 31.4496C187.058 31.2203 187.387 31.0626 187.617 30.9766C187.875 30.8619 188.176 30.7185 188.52 30.5465C188.892 30.3458 189.265 30.1594 189.638 29.9874C190.039 29.7867 190.398 29.629 190.713 29.5144C191.057 29.371 191.315 29.2993 191.487 29.2993C191.86 29.2993 192.161 29.3423 192.39 29.4283C192.648 29.5144 192.863 29.7007 193.035 29.9874C193.236 30.2455 193.394 30.6468 193.508 31.1916C193.652 31.7363 193.809 32.4531 193.981 33.3419C194.125 34.0587 194.211 34.8614 194.24 35.7502C194.297 36.6103 194.326 37.4561 194.326 38.2876C194.326 39.119 194.311 39.9218 194.283 40.6959C194.254 41.47 194.24 42.2728 194.24 43.1043V60.7367C194.182 61.2241 194.153 61.6829 194.153 62.1129C194.153 62.5143 194.153 62.8727 194.153 63.1881C194.153 64.6216 194.326 65.6824 194.67 66.3705C194.67 66.6285 194.899 66.8579 195.358 67.0586C195.816 67.2306 196.318 67.4313 196.863 67.6607C197.408 67.8614 197.881 68.1194 198.282 68.4348C198.683 68.7215 198.827 69.1229 198.712 69.639C198.712 70.3844 198.454 70.9005 197.938 71.1872C197.451 71.4452 196.748 71.5742 195.831 71.5742H185.853Z"/>
<path d="M238.541 65.2523C238.541 65.9118 238.756 66.3992 239.186 66.7146C240.333 67.288 241.035 67.6177 241.293 67.7037C241.981 68.0477 242.354 68.2484 242.411 68.3058C242.727 68.5638 242.884 68.9795 242.884 69.5529C242.884 69.7823 242.856 69.9973 242.798 70.198C242.77 70.3987 242.684 70.5708 242.54 70.7141C242.082 71.2875 241.465 71.5742 240.691 71.5742H230.972C230.656 71.6316 230.37 71.6602 230.112 71.6602C229.882 71.6602 229.667 71.6602 229.467 71.6602C228.893 71.6602 228.434 71.5312 228.09 71.2732C227.775 71.0152 227.617 70.4417 227.617 69.5529C227.617 69.1516 227.746 68.8218 228.004 68.5638C228.262 68.2771 228.635 68.0191 229.123 67.7897C229.381 67.7037 229.667 67.6033 229.983 67.4887C230.327 67.374 230.642 67.2306 230.929 67.0586C231.216 66.8579 231.459 66.6142 231.66 66.3275C231.861 66.0408 231.961 65.6824 231.961 65.2523V42.4162C231.961 41.1833 231.789 40.0938 231.445 39.1477C231.101 38.1729 230.599 37.3558 229.94 36.6964C228.248 35.0048 225.51 34.159 221.726 34.159C219.833 34.159 218.084 34.4744 216.479 35.1051C214.873 35.7359 213.425 36.6534 212.135 37.8575C211.533 38.4023 211.031 38.9613 210.63 39.5348C210.257 40.1082 209.956 40.7246 209.727 41.384C209.526 42.0434 209.383 42.7745 209.297 43.5773C209.239 44.3514 209.211 45.2259 209.211 46.2007V65.2523C209.211 65.9978 209.569 66.6142 210.286 67.1016C210.372 67.1589 210.53 67.2306 210.759 67.3166C210.988 67.374 211.304 67.4743 211.705 67.6177C212.451 67.9331 212.967 68.2054 213.253 68.4348C213.569 68.6355 213.726 69.0082 213.726 69.5529C213.726 70.2124 213.511 70.7141 213.081 71.0582C212.68 71.4022 212.135 71.5742 211.447 71.5742H201.642C201.326 71.6316 201.04 71.6602 200.782 71.6602C200.552 71.6602 200.337 71.6602 200.136 71.6602C199.477 71.6602 198.975 71.5312 198.631 71.2732C198.287 71.0152 198.115 70.4417 198.115 69.5529C198.115 68.8075 198.646 68.2198 199.706 67.7897C199.964 67.7037 200.223 67.6177 200.481 67.5317C200.767 67.4457 201.068 67.331 201.384 67.1876C202.215 66.7002 202.631 66.0551 202.631 65.2523V41.556C202.631 40.0365 202.516 39.0043 202.287 38.4596C201.828 37.4848 201.054 36.8397 199.964 36.5243C199.448 36.3523 199.033 36.209 198.717 36.0943C198.431 35.9509 198.216 35.8219 198.072 35.7072C197.929 35.5925 197.843 35.4779 197.814 35.3632C197.786 35.2198 197.771 35.0478 197.771 34.8471C197.771 34.2737 198.015 33.7146 198.502 33.1699C198.56 33.1125 198.717 32.9835 198.975 32.7828C199.233 32.5821 199.534 32.3528 199.878 32.0947C200.223 31.808 200.595 31.5213 200.997 31.2346C201.398 30.9192 201.771 30.6325 202.115 30.3745C203.032 29.6577 203.821 29.2993 204.48 29.2993C205.082 29.2993 205.613 29.543 206.071 30.0304C206.559 30.5178 206.96 31.2776 207.275 32.3097C207.448 32.7111 207.749 34.2594 208.179 36.9544C209.239 35.6355 210.329 34.5031 211.447 33.5569C212.594 32.5821 213.798 31.7793 215.06 31.1486C216.321 30.5178 217.669 30.0591 219.102 29.7724C220.564 29.457 222.141 29.2993 223.833 29.2993C226.155 29.2993 228.305 29.6434 230.284 30.3315C232.262 31.0196 233.939 32.1377 235.315 33.6859C236.663 35.1481 237.537 36.9687 237.939 39.1477C238.34 41.3267 238.541 43.7637 238.541 46.4587V65.2523Z"/>
<path d="M254.028 60.4787C254.028 63.0304 254.286 64.7076 254.802 65.5104C255.204 66.0838 255.777 66.5282 256.523 66.8436C257.297 67.1303 258.286 67.2736 259.49 67.2736C259.977 67.2163 260.407 67.1876 260.78 67.1876C261.182 67.1876 261.54 67.1876 261.855 67.1876C262.859 67.1876 263.647 67.331 264.221 67.6177C264.823 67.9044 265.124 68.4921 265.124 69.3809C265.124 70.0977 264.851 70.6424 264.307 71.0152C263.762 71.3879 263.117 71.5742 262.371 71.5742H250.502C249.814 71.5742 249.255 71.5026 248.824 71.3592C248.423 71.1872 248.108 70.9435 247.878 70.6281C247.678 70.284 247.549 69.854 247.491 69.3379C247.434 68.7932 247.405 68.1338 247.405 67.3596V34.159H244.438C242.89 34.159 241.814 34.0013 241.212 33.6859C240.639 33.3706 240.352 32.6681 240.352 31.5786C240.352 31.0052 240.653 30.5895 241.255 30.3315C241.857 30.0448 242.531 29.9014 243.277 29.9014C244.481 29.9014 245.413 29.7867 246.072 29.5574C246.732 29.328 247.233 28.7689 247.577 27.8801C248.007 26.9913 248.452 25.5005 248.91 23.4075C249.14 22.3467 249.312 21.4292 249.427 20.6551C249.541 19.8523 249.599 19.2072 249.599 18.7198C249.685 17.8884 249.771 17.2146 249.857 16.6986C249.943 16.1825 250.014 15.8384 250.072 15.6664C250.502 14.2902 251.204 13.6021 252.179 13.6021C252.924 13.6021 253.412 13.9318 253.641 14.5913C253.899 15.2507 254.028 16.0391 254.028 16.9566V29.9014H262.285C263.174 29.9014 263.834 30.0161 264.264 30.2455C264.722 30.4748 264.952 31.0339 264.952 31.9227C264.952 32.9548 264.622 33.5856 263.963 33.815C263.332 34.0443 262.4 34.159 261.167 34.159H254.028V60.4787Z"/>
<path d="M303.576 60.7367C303.576 61.1954 303.576 61.6828 303.576 62.1989C303.576 62.715 303.591 63.2311 303.619 63.7471C303.648 64.2632 303.705 64.7506 303.791 65.2093C303.906 65.6394 304.049 66.0265 304.221 66.3705C304.25 66.6572 304.479 66.9009 304.909 67.1016C305.34 67.3023 305.798 67.503 306.286 67.7037C306.802 67.9044 307.246 68.1481 307.619 68.4348C308.02 68.7215 308.178 69.0942 308.092 69.5529C308.092 70.1264 307.863 70.6138 307.404 71.0152C306.974 71.3879 306.429 71.5742 305.77 71.5742H296.179C295.864 71.6316 295.577 71.6602 295.319 71.6602C295.09 71.6602 294.903 71.6602 294.76 71.6602C294.187 71.6602 293.728 71.5312 293.384 71.2732C293.068 71.0152 292.911 70.4417 292.911 69.5529C292.911 68.8935 293.384 68.3058 294.33 67.7897L295.233 67.3596L296.265 66.5425C296.38 66.3705 296.48 66.1125 296.566 65.7684C296.652 65.4244 296.724 65.0517 296.781 64.6503C296.867 64.2202 296.925 63.7901 296.953 63.3601C296.982 62.9014 296.996 62.5 296.996 62.1559V43.4053C296.996 42.0291 296.767 40.7676 296.308 39.6208C295.85 38.4739 295.19 37.4991 294.33 36.6964C293.47 35.8936 292.409 35.2772 291.148 34.8471C289.915 34.3884 288.51 34.159 286.933 34.159C285.614 34.159 284.41 34.2737 283.32 34.5031C282.231 34.7037 281.184 35.0335 280.181 35.4922C279.206 35.9509 278.231 36.5387 277.257 37.2554C276.31 37.9722 275.307 38.818 274.246 39.7928V60.7367C274.246 61.1954 274.246 61.6828 274.246 62.1989C274.246 62.715 274.261 63.2311 274.289 63.7471C274.318 64.2632 274.375 64.7506 274.461 65.2093C274.576 65.6394 274.719 66.0265 274.891 66.3705C274.891 66.6285 275.135 66.8722 275.622 67.1016C276.11 67.3023 276.626 67.5173 277.171 67.7467C277.715 67.9761 278.188 68.2341 278.59 68.5208C278.991 68.8075 279.106 69.1516 278.934 69.5529C278.934 70.2124 278.719 70.7141 278.289 71.0582C277.887 71.4022 277.343 71.5742 276.655 71.5742H266.333C266.018 71.6316 265.731 71.6602 265.473 71.6602C265.244 71.6602 265.057 71.6602 264.914 71.6602C264.34 71.6602 263.867 71.5169 263.495 71.2302C263.151 70.9435 262.979 70.3844 262.979 69.5529C262.893 69.2089 262.95 68.9222 263.151 68.6928C263.351 68.4635 263.609 68.2771 263.925 68.1338C264.24 67.9617 264.584 67.8184 264.957 67.7037C265.358 67.589 265.702 67.4743 265.989 67.3596C266.161 67.2736 266.304 67.1733 266.419 67.0586C266.562 66.9152 266.706 66.7719 266.849 66.6285C267.021 66.4565 267.15 66.1985 267.236 65.8544C267.351 65.4817 267.437 65.0803 267.494 64.6503C267.552 64.1915 267.595 63.7328 267.623 63.2741C267.652 62.8153 267.666 62.414 267.666 62.0699V14.4192C267.666 13.2724 267.337 12.4123 266.677 11.8389C266.448 11.6095 265.717 11.2655 264.484 10.8067C263.538 10.5487 263.065 10.1043 263.065 9.47355C263.065 8.98615 263.237 8.61343 263.581 8.3554C263.695 8.24072 264.14 7.96834 264.914 7.53828C265.373 7.30892 265.903 7.05088 266.505 6.76418C267.136 6.47747 267.867 6.17643 268.698 5.86105C270.447 5.23029 271.651 4.91492 272.311 4.91492C273.056 4.91492 273.558 5.18729 273.816 5.73203C274.103 6.2481 274.246 6.87886 274.246 7.6243V35.0191C278.231 31.2059 283.019 29.2993 288.61 29.2993C293.284 29.2993 297.068 30.8905 299.964 34.073C301.34 35.5925 302.343 37.4991 302.974 39.7928C303.204 40.6242 303.361 41.5704 303.447 42.6312C303.533 43.692 303.576 44.9105 303.576 46.2867V60.7367Z"/>
<path d="M314.892 56.2641C315.236 58.0417 315.838 59.6472 316.698 61.0808C317.558 62.5143 318.634 63.7328 319.924 64.7363C321.214 65.7398 322.662 66.5139 324.267 67.0586C325.902 67.6033 327.65 67.8757 329.514 67.8757C332.696 67.8757 335.521 67.1159 337.986 65.5964C339.076 64.7649 340.18 63.9192 341.298 63.059C342.445 62.1703 343.577 61.3101 344.695 60.4787C345.097 60.4787 345.469 60.622 345.813 60.9087C346.186 61.1954 346.372 61.5825 346.372 62.0699C346.372 63.1307 345.684 64.3922 344.308 65.8544C343.792 66.4278 343.247 66.9726 342.674 67.4887C342.1 68.0047 341.484 68.4635 340.825 68.8649C338.846 70.241 336.811 71.2589 334.718 71.9183C332.654 72.5777 330.46 72.9074 328.138 72.9074C322.203 72.9074 317.272 71.0295 313.344 67.2736C309.33 63.4891 307.323 58.6724 307.323 52.8236C307.323 49.5265 307.896 46.5017 309.043 43.7493C310.19 40.997 311.882 38.4739 314.118 36.1803C318.591 31.593 324.11 29.2993 330.675 29.2993C334.288 29.2993 337.284 30.0591 339.663 31.5786C341.269 32.5821 342.574 33.8723 343.577 35.4492C344.609 37.0261 345.125 38.7033 345.125 40.4809C345.125 43.4053 344.036 45.957 341.857 48.136C340.051 49.9422 337.614 51.4187 334.546 52.5656C333.342 53.053 331.994 53.483 330.503 53.8558C329.041 54.1998 327.45 54.5295 325.73 54.8449C324.726 55.0169 323.465 55.2176 321.945 55.447C320.425 55.6477 318.662 55.8627 316.655 56.0921L314.892 56.2641ZM338.072 40.3089C338.072 39.1907 337.872 38.2159 337.47 37.3845C337.097 36.553 336.567 35.8649 335.879 35.3202C335.191 34.7468 334.359 34.3167 333.385 34.03C332.438 33.7433 331.392 33.5999 330.245 33.5999C325.199 33.5999 321.2 35.5065 318.246 39.3197C315.666 42.8175 314.376 47.2042 314.376 52.4796C317.616 52.1642 320.44 51.7915 322.848 51.3614C325.256 50.9027 327.306 50.3866 328.998 49.8132C335.047 47.8062 338.072 44.6381 338.072 40.3089Z"/>
<path d="M376.568 13.4301C376.568 13.1434 376.525 12.8997 376.439 12.699C376.381 12.4696 376.238 12.2546 376.009 12.0539C375.808 11.8532 375.493 11.6525 375.063 11.4518C374.661 11.2511 374.102 11.0361 373.385 10.8067C373.242 10.7494 373.127 10.7064 373.041 10.6777C372.955 10.6491 372.869 10.606 372.783 10.5487C372.525 10.4054 372.325 10.2333 372.181 10.0326C372.038 9.83194 371.966 9.61691 371.966 9.38754C371.966 8.92881 372.153 8.54176 372.525 8.22638C372.583 8.16904 373.041 7.911 373.901 7.45227C374.79 6.99354 375.966 6.4918 377.428 5.94706C378.345 5.60301 379.119 5.34498 379.75 5.17295C380.41 5.00093 380.897 4.91492 381.212 4.91492C382.13 4.91492 382.689 5.18729 382.89 5.73203C383.09 6.27677 383.191 7.1799 383.191 8.44141V64.6073C383.191 65.2667 383.32 65.8114 383.578 66.2415C383.864 66.6429 384.252 66.9583 384.739 67.1876L385.814 67.7037C386.474 68.0477 386.889 68.3488 387.061 68.6068C387.233 68.8362 387.319 69.1516 387.319 69.5529C387.319 70.069 387.248 70.4704 387.104 70.7571C386.961 71.0152 386.775 71.2158 386.545 71.3592C386.345 71.5026 386.115 71.5886 385.857 71.6172C385.628 71.6459 385.413 71.6602 385.212 71.6602C384.925 71.6029 384.682 71.5742 384.481 71.5742C384.28 71.5742 384.108 71.5742 383.965 71.5742H378.417C377.528 71.5742 377.084 69.7536 377.084 66.1125C375.306 68.3488 373.299 70.0404 371.063 71.1872C368.855 72.334 366.404 72.9074 363.709 72.9074C358.004 72.9074 353.445 70.8431 350.033 66.7146C346.65 62.6146 344.958 57.6833 344.958 51.9205C344.958 45.7563 346.779 40.5096 350.42 36.1803C354.291 31.593 359.251 29.2993 365.3 29.2993C367.451 29.2993 369.443 29.6147 371.278 30.2455C372.597 30.7329 374.36 31.679 376.568 33.0839V13.4301ZM376.568 37.2984C375.048 36.467 373.744 35.8076 372.654 35.3202C371.565 34.8328 370.69 34.4744 370.031 34.245C369.371 34.0157 368.683 33.858 367.967 33.7719C367.279 33.6573 366.533 33.5999 365.73 33.5999C361.43 33.5999 357.989 35.4492 355.409 39.1477C353.144 42.3875 352.011 46.2724 352.011 50.8023C352.011 53.2393 352.255 55.4326 352.742 57.3822C353.23 59.3319 353.975 61.0664 354.979 62.586C357.33 66.1125 360.828 67.8757 365.472 67.8757C366.275 67.8757 367.121 67.7897 368.01 67.6177C368.898 67.417 369.759 67.1589 370.59 66.8436C371.421 66.5282 372.21 66.1411 372.955 65.6824C373.701 65.2237 374.346 64.7219 374.891 64.1772C375.607 63.4604 376.066 62.758 376.267 62.0699C376.467 61.3531 376.568 60.4357 376.568 59.3175V37.2984Z"/>
</mask>
<path d="M102.153 65.4244C102.153 65.9404 102.44 66.3562 103.013 66.6715C103.587 66.9583 104.318 67.1876 105.207 67.3596C105.694 67.503 106.081 67.632 106.368 67.7467C106.683 67.8327 106.913 67.9044 107.056 67.9617C107.601 68.3058 107.873 68.8362 107.873 69.5529C107.873 70.1264 107.644 70.6138 107.185 71.0152C106.726 71.3879 105.895 71.5742 104.691 71.5742H92.348C91.3445 71.5742 90.5704 71.4596 90.0256 71.2302C89.4809 71.0008 89.2085 70.4417 89.2085 69.5529C89.2085 69.2089 89.2372 68.9365 89.2945 68.7358C89.3805 68.5351 89.5096 68.3631 89.6816 68.2198C89.8536 68.0764 90.0686 67.9474 90.3267 67.8327C90.6134 67.718 90.9431 67.589 91.3158 67.4457C91.9466 67.1876 92.4483 66.9583 92.821 66.7576C93.2224 66.5569 93.5234 66.3275 93.7241 66.0695C93.9248 65.8114 94.0539 65.4961 94.1112 65.1233C94.1685 64.7506 94.1972 64.2632 94.1972 63.6611V13.2581C94.1972 12.7707 93.8818 12.3406 93.2511 11.9679C93.1651 11.9106 92.9644 11.8389 92.649 11.7529C92.3623 11.6669 91.9752 11.5522 91.4878 11.4088C91.0004 11.2655 90.6134 11.1365 90.3267 11.0218C90.0686 10.9071 89.8679 10.8067 89.7246 10.7207C89.1798 10.348 88.9075 9.8176 88.9075 9.12951C88.9075 8.47008 89.1225 7.96834 89.5526 7.6243C89.9826 7.28025 90.7997 7.10822 92.0039 7.10822H114.926C117.076 7.10822 118.954 7.16556 120.56 7.28025C122.194 7.39493 123.542 7.56695 124.602 7.79632C125.692 8.02569 126.753 8.34106 127.785 8.74245C128.817 9.11517 129.835 9.55957 130.838 10.0756C136.658 13 139.569 17.6447 139.569 24.0096C139.569 27.9948 138.221 31.6933 135.526 35.1051C133.118 38.1156 129.95 40.5812 126.022 42.5022C122.639 44.1364 118.926 45.2832 114.883 45.9426C110.841 46.6021 106.597 46.9318 102.153 46.9318V65.4244ZM102.153 42.3301C109.292 42.3301 115.399 41.1546 120.474 38.8037C127.211 35.7072 130.58 31.0769 130.58 24.9127C130.58 23.8519 130.437 22.8198 130.15 21.8163C129.892 20.7841 129.519 19.8237 129.032 18.9349C128.545 18.0461 127.943 17.229 127.226 16.4835C126.538 15.7094 125.749 15.05 124.86 14.5053C123.14 13.4158 121.205 12.6703 119.055 12.2689C116.933 11.8676 114.697 11.6669 112.346 11.6669C110.798 11.6669 109.321 11.7385 107.916 11.8819C106.54 12.0252 105.35 12.3693 104.347 12.914C103.831 13.1721 103.429 13.4588 103.142 13.7742C102.856 14.0895 102.641 14.4623 102.497 14.8923C102.354 15.3224 102.254 15.8384 102.196 16.4405C102.168 17.0139 102.153 17.6877 102.153 18.4618V42.3301Z" fill="#161616"/>
<path d="M182.279 50.8023C182.279 57.1099 180.143 62.3566 175.871 66.5425C171.599 70.7858 166.309 72.9074 160.002 72.9074C154.009 72.9074 148.906 70.7858 144.691 66.5425C140.506 62.1846 138.413 57.0525 138.413 51.1464C138.413 48.136 138.957 45.3549 140.047 42.8032C141.165 40.2515 142.799 37.8862 144.949 35.7072C149.221 31.4353 154.382 29.2993 160.432 29.2993C166.395 29.2993 171.542 31.3779 175.871 35.5352C180.143 39.6924 182.279 44.7815 182.279 50.8023ZM171.57 62.844C172.803 61.2671 173.72 59.4322 174.323 57.3392C174.953 55.2176 175.269 53.01 175.269 50.7163C175.269 45.871 173.993 41.8714 171.441 38.7176C168.746 35.3058 165.019 33.5999 160.26 33.5999C155.558 33.5999 151.83 35.4492 149.078 39.1477C146.67 42.4735 145.466 46.5877 145.466 51.4904C145.466 56.2784 146.67 60.2493 149.078 63.4031C151.773 66.8436 155.443 68.5638 160.088 68.5638C164.79 68.5638 168.617 66.6572 171.57 62.844Z" fill="#161616"/>
<path d="M184.821 17.6877C184.821 16.2542 185.28 15.1073 186.197 14.2472C187.144 13.3584 188.319 12.914 189.724 12.914C191.1 12.914 192.233 13.3441 193.121 14.2042C194.039 15.0357 194.498 16.1395 194.498 17.5157C194.498 19.0639 194.039 20.2824 193.121 21.1712C192.233 22.06 190.985 22.5044 189.38 22.5044C188.004 22.5044 186.9 22.06 186.068 21.1712C185.237 20.2537 184.821 19.0926 184.821 17.6877ZM185.853 71.5742C184.936 71.5742 184.205 71.4596 183.66 71.2302C183.144 71.0008 182.886 70.4704 182.886 69.639C182.886 68.6642 183.474 68.0477 184.649 67.7897C185.825 67.4457 186.613 66.8579 187.014 66.0265C187.416 65.195 187.617 63.8762 187.617 62.0699V41.8141C187.617 40.954 187.574 40.2228 187.488 39.6208C187.402 39.0187 187.23 38.5169 186.971 38.1156C186.713 37.6855 186.341 37.3414 185.853 37.0834C185.366 36.8254 184.721 36.6103 183.918 36.4383C183.345 36.295 182.872 36.1373 182.499 35.9653C182.155 35.7646 181.983 35.3918 181.983 34.8471C181.983 34.5891 182.011 34.3597 182.069 34.159C182.155 33.9583 182.298 33.7576 182.499 33.5569C182.728 33.3562 183.029 33.1555 183.402 32.9548C183.803 32.7541 184.334 32.5104 184.993 32.2237C185.653 31.9084 186.197 31.6503 186.627 31.4496C187.058 31.2203 187.387 31.0626 187.617 30.9766C187.875 30.8619 188.176 30.7185 188.52 30.5465C188.892 30.3458 189.265 30.1594 189.638 29.9874C190.039 29.7867 190.398 29.629 190.713 29.5144C191.057 29.371 191.315 29.2993 191.487 29.2993C191.86 29.2993 192.161 29.3423 192.39 29.4283C192.648 29.5144 192.863 29.7007 193.035 29.9874C193.236 30.2455 193.394 30.6468 193.508 31.1916C193.652 31.7363 193.809 32.4531 193.981 33.3419C194.125 34.0587 194.211 34.8614 194.24 35.7502C194.297 36.6103 194.326 37.4561 194.326 38.2876C194.326 39.119 194.311 39.9218 194.283 40.6959C194.254 41.47 194.24 42.2728 194.24 43.1043V60.7367C194.182 61.2241 194.153 61.6829 194.153 62.1129C194.153 62.5143 194.153 62.8727 194.153 63.1881C194.153 64.6216 194.326 65.6824 194.67 66.3705C194.67 66.6285 194.899 66.8579 195.358 67.0586C195.816 67.2306 196.318 67.4313 196.863 67.6607C197.408 67.8614 197.881 68.1194 198.282 68.4348C198.683 68.7215 198.827 69.1229 198.712 69.639C198.712 70.3844 198.454 70.9005 197.938 71.1872C197.451 71.4452 196.748 71.5742 195.831 71.5742H185.853Z" fill="#161616"/>
<path d="M238.541 65.2523C238.541 65.9118 238.756 66.3992 239.186 66.7146C240.333 67.288 241.035 67.6177 241.293 67.7037C241.981 68.0477 242.354 68.2484 242.411 68.3058C242.727 68.5638 242.884 68.9795 242.884 69.5529C242.884 69.7823 242.856 69.9973 242.798 70.198C242.77 70.3987 242.684 70.5708 242.54 70.7141C242.082 71.2875 241.465 71.5742 240.691 71.5742H230.972C230.656 71.6316 230.37 71.6602 230.112 71.6602C229.882 71.6602 229.667 71.6602 229.467 71.6602C228.893 71.6602 228.434 71.5312 228.09 71.2732C227.775 71.0152 227.617 70.4417 227.617 69.5529C227.617 69.1516 227.746 68.8218 228.004 68.5638C228.262 68.2771 228.635 68.0191 229.123 67.7897C229.381 67.7037 229.667 67.6033 229.983 67.4887C230.327 67.374 230.642 67.2306 230.929 67.0586C231.216 66.8579 231.459 66.6142 231.66 66.3275C231.861 66.0408 231.961 65.6824 231.961 65.2523V42.4162C231.961 41.1833 231.789 40.0938 231.445 39.1477C231.101 38.1729 230.599 37.3558 229.94 36.6964C228.248 35.0048 225.51 34.159 221.726 34.159C219.833 34.159 218.084 34.4744 216.479 35.1051C214.873 35.7359 213.425 36.6534 212.135 37.8575C211.533 38.4023 211.031 38.9613 210.63 39.5348C210.257 40.1082 209.956 40.7246 209.727 41.384C209.526 42.0434 209.383 42.7745 209.297 43.5773C209.239 44.3514 209.211 45.2259 209.211 46.2007V65.2523C209.211 65.9978 209.569 66.6142 210.286 67.1016C210.372 67.1589 210.53 67.2306 210.759 67.3166C210.988 67.374 211.304 67.4743 211.705 67.6177C212.451 67.9331 212.967 68.2054 213.253 68.4348C213.569 68.6355 213.726 69.0082 213.726 69.5529C213.726 70.2124 213.511 70.7141 213.081 71.0582C212.68 71.4022 212.135 71.5742 211.447 71.5742H201.642C201.326 71.6316 201.04 71.6602 200.782 71.6602C200.552 71.6602 200.337 71.6602 200.136 71.6602C199.477 71.6602 198.975 71.5312 198.631 71.2732C198.287 71.0152 198.115 70.4417 198.115 69.5529C198.115 68.8075 198.646 68.2198 199.706 67.7897C199.964 67.7037 200.223 67.6177 200.481 67.5317C200.767 67.4457 201.068 67.331 201.384 67.1876C202.215 66.7002 202.631 66.0551 202.631 65.2523V41.556C202.631 40.0365 202.516 39.0043 202.287 38.4596C201.828 37.4848 201.054 36.8397 199.964 36.5243C199.448 36.3523 199.033 36.209 198.717 36.0943C198.431 35.9509 198.216 35.8219 198.072 35.7072C197.929 35.5925 197.843 35.4779 197.814 35.3632C197.786 35.2198 197.771 35.0478 197.771 34.8471C197.771 34.2737 198.015 33.7146 198.502 33.1699C198.56 33.1125 198.717 32.9835 198.975 32.7828C199.233 32.5821 199.534 32.3528 199.878 32.0947C200.223 31.808 200.595 31.5213 200.997 31.2346C201.398 30.9192 201.771 30.6325 202.115 30.3745C203.032 29.6577 203.821 29.2993 204.48 29.2993C205.082 29.2993 205.613 29.543 206.071 30.0304C206.559 30.5178 206.96 31.2776 207.275 32.3097C207.448 32.7111 207.749 34.2594 208.179 36.9544C209.239 35.6355 210.329 34.5031 211.447 33.5569C212.594 32.5821 213.798 31.7793 215.06 31.1486C216.321 30.5178 217.669 30.0591 219.102 29.7724C220.564 29.457 222.141 29.2993 223.833 29.2993C226.155 29.2993 228.305 29.6434 230.284 30.3315C232.262 31.0196 233.939 32.1377 235.315 33.6859C236.663 35.1481 237.537 36.9687 237.939 39.1477C238.34 41.3267 238.541 43.7637 238.541 46.4587V65.2523Z" fill="#161616"/>
<path d="M254.028 60.4787C254.028 63.0304 254.286 64.7076 254.802 65.5104C255.204 66.0838 255.777 66.5282 256.523 66.8436C257.297 67.1303 258.286 67.2736 259.49 67.2736C259.977 67.2163 260.407 67.1876 260.78 67.1876C261.182 67.1876 261.54 67.1876 261.855 67.1876C262.859 67.1876 263.647 67.331 264.221 67.6177C264.823 67.9044 265.124 68.4921 265.124 69.3809C265.124 70.0977 264.851 70.6424 264.307 71.0152C263.762 71.3879 263.117 71.5742 262.371 71.5742H250.502C249.814 71.5742 249.255 71.5026 248.824 71.3592C248.423 71.1872 248.108 70.9435 247.878 70.6281C247.678 70.284 247.549 69.854 247.491 69.3379C247.434 68.7932 247.405 68.1338 247.405 67.3596V34.159H244.438C242.89 34.159 241.814 34.0013 241.212 33.6859C240.639 33.3706 240.352 32.6681 240.352 31.5786C240.352 31.0052 240.653 30.5895 241.255 30.3315C241.857 30.0448 242.531 29.9014 243.277 29.9014C244.481 29.9014 245.413 29.7867 246.072 29.5574C246.732 29.328 247.233 28.7689 247.577 27.8801C248.007 26.9913 248.452 25.5005 248.91 23.4075C249.14 22.3467 249.312 21.4292 249.427 20.6551C249.541 19.8523 249.599 19.2072 249.599 18.7198C249.685 17.8884 249.771 17.2146 249.857 16.6986C249.943 16.1825 250.014 15.8384 250.072 15.6664C250.502 14.2902 251.204 13.6021 252.179 13.6021C252.924 13.6021 253.412 13.9318 253.641 14.5913C253.899 15.2507 254.028 16.0391 254.028 16.9566V29.9014H262.285C263.174 29.9014 263.834 30.0161 264.264 30.2455C264.722 30.4748 264.952 31.0339 264.952 31.9227C264.952 32.9548 264.622 33.5856 263.963 33.815C263.332 34.0443 262.4 34.159 261.167 34.159H254.028V60.4787Z" fill="#161616"/>
<path d="M303.576 60.7367C303.576 61.1954 303.576 61.6828 303.576 62.1989C303.576 62.715 303.591 63.2311 303.619 63.7471C303.648 64.2632 303.705 64.7506 303.791 65.2093C303.906 65.6394 304.049 66.0265 304.221 66.3705C304.25 66.6572 304.479 66.9009 304.909 67.1016C305.34 67.3023 305.798 67.503 306.286 67.7037C306.802 67.9044 307.246 68.1481 307.619 68.4348C308.02 68.7215 308.178 69.0942 308.092 69.5529C308.092 70.1264 307.863 70.6138 307.404 71.0152C306.974 71.3879 306.429 71.5742 305.77 71.5742H296.179C295.864 71.6316 295.577 71.6602 295.319 71.6602C295.09 71.6602 294.903 71.6602 294.76 71.6602C294.187 71.6602 293.728 71.5312 293.384 71.2732C293.068 71.0152 292.911 70.4417 292.911 69.5529C292.911 68.8935 293.384 68.3058 294.33 67.7897L295.233 67.3596L296.265 66.5425C296.38 66.3705 296.48 66.1125 296.566 65.7684C296.652 65.4244 296.724 65.0517 296.781 64.6503C296.867 64.2202 296.925 63.7901 296.953 63.3601C296.982 62.9014 296.996 62.5 296.996 62.1559V43.4053C296.996 42.0291 296.767 40.7676 296.308 39.6208C295.85 38.4739 295.19 37.4991 294.33 36.6964C293.47 35.8936 292.409 35.2772 291.148 34.8471C289.915 34.3884 288.51 34.159 286.933 34.159C285.614 34.159 284.41 34.2737 283.32 34.5031C282.231 34.7037 281.184 35.0335 280.181 35.4922C279.206 35.9509 278.231 36.5387 277.257 37.2554C276.31 37.9722 275.307 38.818 274.246 39.7928V60.7367C274.246 61.1954 274.246 61.6828 274.246 62.1989C274.246 62.715 274.261 63.2311 274.289 63.7471C274.318 64.2632 274.375 64.7506 274.461 65.2093C274.576 65.6394 274.719 66.0265 274.891 66.3705C274.891 66.6285 275.135 66.8722 275.622 67.1016C276.11 67.3023 276.626 67.5173 277.171 67.7467C277.715 67.9761 278.188 68.2341 278.59 68.5208C278.991 68.8075 279.106 69.1516 278.934 69.5529C278.934 70.2124 278.719 70.7141 278.289 71.0582C277.887 71.4022 277.343 71.5742 276.655 71.5742H266.333C266.018 71.6316 265.731 71.6602 265.473 71.6602C265.244 71.6602 265.057 71.6602 264.914 71.6602C264.34 71.6602 263.867 71.5169 263.495 71.2302C263.151 70.9435 262.979 70.3844 262.979 69.5529C262.893 69.2089 262.95 68.9222 263.151 68.6928C263.351 68.4635 263.609 68.2771 263.925 68.1338C264.24 67.9617 264.584 67.8184 264.957 67.7037C265.358 67.589 265.702 67.4743 265.989 67.3596C266.161 67.2736 266.304 67.1733 266.419 67.0586C266.562 66.9152 266.706 66.7719 266.849 66.6285C267.021 66.4565 267.15 66.1985 267.236 65.8544C267.351 65.4817 267.437 65.0803 267.494 64.6503C267.552 64.1915 267.595 63.7328 267.623 63.2741C267.652 62.8153 267.666 62.414 267.666 62.0699V14.4192C267.666 13.2724 267.337 12.4123 266.677 11.8389C266.448 11.6095 265.717 11.2655 264.484 10.8067C263.538 10.5487 263.065 10.1043 263.065 9.47355C263.065 8.98615 263.237 8.61343 263.581 8.3554C263.695 8.24072 264.14 7.96834 264.914 7.53828C265.373 7.30892 265.903 7.05088 266.505 6.76418C267.136 6.47747 267.867 6.17643 268.698 5.86105C270.447 5.23029 271.651 4.91492 272.311 4.91492C273.056 4.91492 273.558 5.18729 273.816 5.73203C274.103 6.2481 274.246 6.87886 274.246 7.6243V35.0191C278.231 31.2059 283.019 29.2993 288.61 29.2993C293.284 29.2993 297.068 30.8905 299.964 34.073C301.34 35.5925 302.343 37.4991 302.974 39.7928C303.204 40.6242 303.361 41.5704 303.447 42.6312C303.533 43.692 303.576 44.9105 303.576 46.2867V60.7367Z" fill="#161616"/>
<path d="M314.892 56.2641C315.236 58.0417 315.838 59.6472 316.698 61.0808C317.558 62.5143 318.634 63.7328 319.924 64.7363C321.214 65.7398 322.662 66.5139 324.267 67.0586C325.902 67.6033 327.65 67.8757 329.514 67.8757C332.696 67.8757 335.521 67.1159 337.986 65.5964C339.076 64.7649 340.18 63.9192 341.298 63.059C342.445 62.1703 343.577 61.3101 344.695 60.4787C345.097 60.4787 345.469 60.622 345.813 60.9087C346.186 61.1954 346.372 61.5825 346.372 62.0699C346.372 63.1307 345.684 64.3922 344.308 65.8544C343.792 66.4278 343.247 66.9726 342.674 67.4887C342.1 68.0047 341.484 68.4635 340.825 68.8649C338.846 70.241 336.811 71.2589 334.718 71.9183C332.654 72.5777 330.46 72.9074 328.138 72.9074C322.203 72.9074 317.272 71.0295 313.344 67.2736C309.33 63.4891 307.323 58.6724 307.323 52.8236C307.323 49.5265 307.896 46.5017 309.043 43.7493C310.19 40.997 311.882 38.4739 314.118 36.1803C318.591 31.593 324.11 29.2993 330.675 29.2993C334.288 29.2993 337.284 30.0591 339.663 31.5786C341.269 32.5821 342.574 33.8723 343.577 35.4492C344.609 37.0261 345.125 38.7033 345.125 40.4809C345.125 43.4053 344.036 45.957 341.857 48.136C340.051 49.9422 337.614 51.4187 334.546 52.5656C333.342 53.053 331.994 53.483 330.503 53.8558C329.041 54.1998 327.45 54.5295 325.73 54.8449C324.726 55.0169 323.465 55.2176 321.945 55.447C320.425 55.6477 318.662 55.8627 316.655 56.0921L314.892 56.2641ZM338.072 40.3089C338.072 39.1907 337.872 38.2159 337.47 37.3845C337.097 36.553 336.567 35.8649 335.879 35.3202C335.191 34.7468 334.359 34.3167 333.385 34.03C332.438 33.7433 331.392 33.5999 330.245 33.5999C325.199 33.5999 321.2 35.5065 318.246 39.3197C315.666 42.8175 314.376 47.2042 314.376 52.4796C317.616 52.1642 320.44 51.7915 322.848 51.3614C325.256 50.9027 327.306 50.3866 328.998 49.8132C335.047 47.8062 338.072 44.6381 338.072 40.3089Z" fill="#161616"/>
<path d="M376.568 13.4301C376.568 13.1434 376.525 12.8997 376.439 12.699C376.381 12.4696 376.238 12.2546 376.009 12.0539C375.808 11.8532 375.493 11.6525 375.063 11.4518C374.661 11.2511 374.102 11.0361 373.385 10.8067C373.242 10.7494 373.127 10.7064 373.041 10.6777C372.955 10.6491 372.869 10.606 372.783 10.5487C372.525 10.4054 372.325 10.2333 372.181 10.0326C372.038 9.83194 371.966 9.61691 371.966 9.38754C371.966 8.92881 372.153 8.54176 372.525 8.22638C372.583 8.16904 373.041 7.911 373.901 7.45227C374.79 6.99354 375.966 6.4918 377.428 5.94706C378.345 5.60301 379.119 5.34498 379.75 5.17295C380.41 5.00093 380.897 4.91492 381.212 4.91492C382.13 4.91492 382.689 5.18729 382.89 5.73203C383.09 6.27677 383.191 7.1799 383.191 8.44141V64.6073C383.191 65.2667 383.32 65.8114 383.578 66.2415C383.864 66.6429 384.252 66.9583 384.739 67.1876L385.814 67.7037C386.474 68.0477 386.889 68.3488 387.061 68.6068C387.233 68.8362 387.319 69.1516 387.319 69.5529C387.319 70.069 387.248 70.4704 387.104 70.7571C386.961 71.0152 386.775 71.2158 386.545 71.3592C386.345 71.5026 386.115 71.5886 385.857 71.6172C385.628 71.6459 385.413 71.6602 385.212 71.6602C384.925 71.6029 384.682 71.5742 384.481 71.5742C384.28 71.5742 384.108 71.5742 383.965 71.5742H378.417C377.528 71.5742 377.084 69.7536 377.084 66.1125C375.306 68.3488 373.299 70.0404 371.063 71.1872C368.855 72.334 366.404 72.9074 363.709 72.9074C358.004 72.9074 353.445 70.8431 350.033 66.7146C346.65 62.6146 344.958 57.6833 344.958 51.9205C344.958 45.7563 346.779 40.5096 350.42 36.1803C354.291 31.593 359.251 29.2993 365.3 29.2993C367.451 29.2993 369.443 29.6147 371.278 30.2455C372.597 30.7329 374.36 31.679 376.568 33.0839V13.4301ZM376.568 37.2984C375.048 36.467 373.744 35.8076 372.654 35.3202C371.565 34.8328 370.69 34.4744 370.031 34.245C369.371 34.0157 368.683 33.858 367.967 33.7719C367.279 33.6573 366.533 33.5999 365.73 33.5999C361.43 33.5999 357.989 35.4492 355.409 39.1477C353.144 42.3875 352.011 46.2724 352.011 50.8023C352.011 53.2393 352.255 55.4326 352.742 57.3822C353.23 59.3319 353.975 61.0664 354.979 62.586C357.33 66.1125 360.828 67.8757 365.472 67.8757C366.275 67.8757 367.121 67.7897 368.01 67.6177C368.898 67.417 369.759 67.1589 370.59 66.8436C371.421 66.5282 372.21 66.1411 372.955 65.6824C373.701 65.2237 374.346 64.7219 374.891 64.1772C375.607 63.4604 376.066 62.758 376.267 62.0699C376.467 61.3531 376.568 60.4357 376.568 59.3175V37.2984Z" fill="#161616"/>
<path d="M102.153 65.4244C102.153 65.9404 102.44 66.3562 103.013 66.6715C103.587 66.9583 104.318 67.1876 105.207 67.3596C105.694 67.503 106.081 67.632 106.368 67.7467C106.683 67.8327 106.913 67.9044 107.056 67.9617C107.601 68.3058 107.873 68.8362 107.873 69.5529C107.873 70.1264 107.644 70.6138 107.185 71.0152C106.726 71.3879 105.895 71.5742 104.691 71.5742H92.348C91.3445 71.5742 90.5704 71.4596 90.0256 71.2302C89.4809 71.0008 89.2085 70.4417 89.2085 69.5529C89.2085 69.2089 89.2372 68.9365 89.2945 68.7358C89.3805 68.5351 89.5096 68.3631 89.6816 68.2198C89.8536 68.0764 90.0686 67.9474 90.3267 67.8327C90.6134 67.718 90.9431 67.589 91.3158 67.4457C91.9466 67.1876 92.4483 66.9583 92.821 66.7576C93.2224 66.5569 93.5234 66.3275 93.7241 66.0695C93.9248 65.8114 94.0539 65.4961 94.1112 65.1233C94.1685 64.7506 94.1972 64.2632 94.1972 63.6611V13.2581C94.1972 12.7707 93.8818 12.3406 93.2511 11.9679C93.1651 11.9106 92.9644 11.8389 92.649 11.7529C92.3623 11.6669 91.9752 11.5522 91.4878 11.4088C91.0004 11.2655 90.6134 11.1365 90.3267 11.0218C90.0686 10.9071 89.8679 10.8067 89.7246 10.7207C89.1798 10.348 88.9075 9.8176 88.9075 9.12951C88.9075 8.47008 89.1225 7.96834 89.5526 7.6243C89.9826 7.28025 90.7997 7.10822 92.0039 7.10822H114.926C117.076 7.10822 118.954 7.16556 120.56 7.28025C122.194 7.39493 123.542 7.56695 124.602 7.79632C125.692 8.02569 126.753 8.34106 127.785 8.74245C128.817 9.11517 129.835 9.55957 130.838 10.0756C136.658 13 139.569 17.6447 139.569 24.0096C139.569 27.9948 138.221 31.6933 135.526 35.1051C133.118 38.1156 129.95 40.5812 126.022 42.5022C122.639 44.1364 118.926 45.2832 114.883 45.9426C110.841 46.6021 106.597 46.9318 102.153 46.9318V65.4244ZM102.153 42.3301C109.292 42.3301 115.399 41.1546 120.474 38.8037C127.211 35.7072 130.58 31.0769 130.58 24.9127C130.58 23.8519 130.437 22.8198 130.15 21.8163C129.892 20.7841 129.519 19.8237 129.032 18.9349C128.545 18.0461 127.943 17.229 127.226 16.4835C126.538 15.7094 125.749 15.05 124.86 14.5053C123.14 13.4158 121.205 12.6703 119.055 12.2689C116.933 11.8676 114.697 11.6669 112.346 11.6669C110.798 11.6669 109.321 11.7385 107.916 11.8819C106.54 12.0252 105.35 12.3693 104.347 12.914C103.831 13.1721 103.429 13.4588 103.142 13.7742C102.856 14.0895 102.641 14.4623 102.497 14.8923C102.354 15.3224 102.254 15.8384 102.196 16.4405C102.168 17.0139 102.153 17.6877 102.153 18.4618V42.3301Z" stroke="#161616" stroke-width="2" mask="url(#path-2-outside-1_171_7738)"/>
<path d="M182.279 50.8023C182.279 57.1099 180.143 62.3566 175.871 66.5425C171.599 70.7858 166.309 72.9074 160.002 72.9074C154.009 72.9074 148.906 70.7858 144.691 66.5425C140.506 62.1846 138.413 57.0525 138.413 51.1464C138.413 48.136 138.957 45.3549 140.047 42.8032C141.165 40.2515 142.799 37.8862 144.949 35.7072C149.221 31.4353 154.382 29.2993 160.432 29.2993C166.395 29.2993 171.542 31.3779 175.871 35.5352C180.143 39.6924 182.279 44.7815 182.279 50.8023ZM171.57 62.844C172.803 61.2671 173.72 59.4322 174.323 57.3392C174.953 55.2176 175.269 53.01 175.269 50.7163C175.269 45.871 173.993 41.8714 171.441 38.7176C168.746 35.3058 165.019 33.5999 160.26 33.5999C155.558 33.5999 151.83 35.4492 149.078 39.1477C146.67 42.4735 145.466 46.5877 145.466 51.4904C145.466 56.2784 146.67 60.2493 149.078 63.4031C151.773 66.8436 155.443 68.5638 160.088 68.5638C164.79 68.5638 168.617 66.6572 171.57 62.844Z" stroke="#161616" stroke-width="2" mask="url(#path-2-outside-1_171_7738)"/>
<path d="M184.821 17.6877C184.821 16.2542 185.28 15.1073 186.197 14.2472C187.144 13.3584 188.319 12.914 189.724 12.914C191.1 12.914 192.233 13.3441 193.121 14.2042C194.039 15.0357 194.498 16.1395 194.498 17.5157C194.498 19.0639 194.039 20.2824 193.121 21.1712C192.233 22.06 190.985 22.5044 189.38 22.5044C188.004 22.5044 186.9 22.06 186.068 21.1712C185.237 20.2537 184.821 19.0926 184.821 17.6877ZM185.853 71.5742C184.936 71.5742 184.205 71.4596 183.66 71.2302C183.144 71.0008 182.886 70.4704 182.886 69.639C182.886 68.6642 183.474 68.0477 184.649 67.7897C185.825 67.4457 186.613 66.8579 187.014 66.0265C187.416 65.195 187.617 63.8762 187.617 62.0699V41.8141C187.617 40.954 187.574 40.2228 187.488 39.6208C187.402 39.0187 187.23 38.5169 186.971 38.1156C186.713 37.6855 186.341 37.3414 185.853 37.0834C185.366 36.8254 184.721 36.6103 183.918 36.4383C183.345 36.295 182.872 36.1373 182.499 35.9653C182.155 35.7646 181.983 35.3918 181.983 34.8471C181.983 34.5891 182.011 34.3597 182.069 34.159C182.155 33.9583 182.298 33.7576 182.499 33.5569C182.728 33.3562 183.029 33.1555 183.402 32.9548C183.803 32.7541 184.334 32.5104 184.993 32.2237C185.653 31.9084 186.197 31.6503 186.627 31.4496C187.058 31.2203 187.387 31.0626 187.617 30.9766C187.875 30.8619 188.176 30.7185 188.52 30.5465C188.892 30.3458 189.265 30.1594 189.638 29.9874C190.039 29.7867 190.398 29.629 190.713 29.5144C191.057 29.371 191.315 29.2993 191.487 29.2993C191.86 29.2993 192.161 29.3423 192.39 29.4283C192.648 29.5144 192.863 29.7007 193.035 29.9874C193.236 30.2455 193.394 30.6468 193.508 31.1916C193.652 31.7363 193.809 32.4531 193.981 33.3419C194.125 34.0587 194.211 34.8614 194.24 35.7502C194.297 36.6103 194.326 37.4561 194.326 38.2876C194.326 39.119 194.311 39.9218 194.283 40.6959C194.254 41.47 194.24 42.2728 194.24 43.1043V60.7367C194.182 61.2241 194.153 61.6829 194.153 62.1129C194.153 62.5143 194.153 62.8727 194.153 63.1881C194.153 64.6216 194.326 65.6824 194.67 66.3705C194.67 66.6285 194.899 66.8579 195.358 67.0586C195.816 67.2306 196.318 67.4313 196.863 67.6607C197.408 67.8614 197.881 68.1194 198.282 68.4348C198.683 68.7215 198.827 69.1229 198.712 69.639C198.712 70.3844 198.454 70.9005 197.938 71.1872C197.451 71.4452 196.748 71.5742 195.831 71.5742H185.853Z" stroke="#161616" stroke-width="2" mask="url(#path-2-outside-1_171_7738)"/>
<path d="M238.541 65.2523C238.541 65.9118 238.756 66.3992 239.186 66.7146C240.333 67.288 241.035 67.6177 241.293 67.7037C241.981 68.0477 242.354 68.2484 242.411 68.3058C242.727 68.5638 242.884 68.9795 242.884 69.5529C242.884 69.7823 242.856 69.9973 242.798 70.198C242.77 70.3987 242.684 70.5708 242.54 70.7141C242.082 71.2875 241.465 71.5742 240.691 71.5742H230.972C230.656 71.6316 230.37 71.6602 230.112 71.6602C229.882 71.6602 229.667 71.6602 229.467 71.6602C228.893 71.6602 228.434 71.5312 228.09 71.2732C227.775 71.0152 227.617 70.4417 227.617 69.5529C227.617 69.1516 227.746 68.8218 228.004 68.5638C228.262 68.2771 228.635 68.0191 229.123 67.7897C229.381 67.7037 229.667 67.6033 229.983 67.4887C230.327 67.374 230.642 67.2306 230.929 67.0586C231.216 66.8579 231.459 66.6142 231.66 66.3275C231.861 66.0408 231.961 65.6824 231.961 65.2523V42.4162C231.961 41.1833 231.789 40.0938 231.445 39.1477C231.101 38.1729 230.599 37.3558 229.94 36.6964C228.248 35.0048 225.51 34.159 221.726 34.159C219.833 34.159 218.084 34.4744 216.479 35.1051C214.873 35.7359 213.425 36.6534 212.135 37.8575C211.533 38.4023 211.031 38.9613 210.63 39.5348C210.257 40.1082 209.956 40.7246 209.727 41.384C209.526 42.0434 209.383 42.7745 209.297 43.5773C209.239 44.3514 209.211 45.2259 209.211 46.2007V65.2523C209.211 65.9978 209.569 66.6142 210.286 67.1016C210.372 67.1589 210.53 67.2306 210.759 67.3166C210.988 67.374 211.304 67.4743 211.705 67.6177C212.451 67.9331 212.967 68.2054 213.253 68.4348C213.569 68.6355 213.726 69.0082 213.726 69.5529C213.726 70.2124 213.511 70.7141 213.081 71.0582C212.68 71.4022 212.135 71.5742 211.447 71.5742H201.642C201.326 71.6316 201.04 71.6602 200.782 71.6602C200.552 71.6602 200.337 71.6602 200.136 71.6602C199.477 71.6602 198.975 71.5312 198.631 71.2732C198.287 71.0152 198.115 70.4417 198.115 69.5529C198.115 68.8075 198.646 68.2198 199.706 67.7897C199.964 67.7037 200.223 67.6177 200.481 67.5317C200.767 67.4457 201.068 67.331 201.384 67.1876C202.215 66.7002 202.631 66.0551 202.631 65.2523V41.556C202.631 40.0365 202.516 39.0043 202.287 38.4596C201.828 37.4848 201.054 36.8397 199.964 36.5243C199.448 36.3523 199.033 36.209 198.717 36.0943C198.431 35.9509 198.216 35.8219 198.072 35.7072C197.929 35.5925 197.843 35.4779 197.814 35.3632C197.786 35.2198 197.771 35.0478 197.771 34.8471C197.771 34.2737 198.015 33.7146 198.502 33.1699C198.56 33.1125 198.717 32.9835 198.975 32.7828C199.233 32.5821 199.534 32.3528 199.878 32.0947C200.223 31.808 200.595 31.5213 200.997 31.2346C201.398 30.9192 201.771 30.6325 202.115 30.3745C203.032 29.6577 203.821 29.2993 204.48 29.2993C205.082 29.2993 205.613 29.543 206.071 30.0304C206.559 30.5178 206.96 31.2776 207.275 32.3097C207.448 32.7111 207.749 34.2594 208.179 36.9544C209.239 35.6355 210.329 34.5031 211.447 33.5569C212.594 32.5821 213.798 31.7793 215.06 31.1486C216.321 30.5178 217.669 30.0591 219.102 29.7724C220.564 29.457 222.141 29.2993 223.833 29.2993C226.155 29.2993 228.305 29.6434 230.284 30.3315C232.262 31.0196 233.939 32.1377 235.315 33.6859C236.663 35.1481 237.537 36.9687 237.939 39.1477C238.34 41.3267 238.541 43.7637 238.541 46.4587V65.2523Z" stroke="#161616" stroke-width="2" mask="url(#path-2-outside-1_171_7738)"/>
<path d="M254.028 60.4787C254.028 63.0304 254.286 64.7076 254.802 65.5104C255.204 66.0838 255.777 66.5282 256.523 66.8436C257.297 67.1303 258.286 67.2736 259.49 67.2736C259.977 67.2163 260.407 67.1876 260.78 67.1876C261.182 67.1876 261.54 67.1876 261.855 67.1876C262.859 67.1876 263.647 67.331 264.221 67.6177C264.823 67.9044 265.124 68.4921 265.124 69.3809C265.124 70.0977 264.851 70.6424 264.307 71.0152C263.762 71.3879 263.117 71.5742 262.371 71.5742H250.502C249.814 71.5742 249.255 71.5026 248.824 71.3592C248.423 71.1872 248.108 70.9435 247.878 70.6281C247.678 70.284 247.549 69.854 247.491 69.3379C247.434 68.7932 247.405 68.1338 247.405 67.3596V34.159H244.438C242.89 34.159 241.814 34.0013 241.212 33.6859C240.639 33.3706 240.352 32.6681 240.352 31.5786C240.352 31.0052 240.653 30.5895 241.255 30.3315C241.857 30.0448 242.531 29.9014 243.277 29.9014C244.481 29.9014 245.413 29.7867 246.072 29.5574C246.732 29.328 247.233 28.7689 247.577 27.8801C248.007 26.9913 248.452 25.5005 248.91 23.4075C249.14 22.3467 249.312 21.4292 249.427 20.6551C249.541 19.8523 249.599 19.2072 249.599 18.7198C249.685 17.8884 249.771 17.2146 249.857 16.6986C249.943 16.1825 250.014 15.8384 250.072 15.6664C250.502 14.2902 251.204 13.6021 252.179 13.6021C252.924 13.6021 253.412 13.9318 253.641 14.5913C253.899 15.2507 254.028 16.0391 254.028 16.9566V29.9014H262.285C263.174 29.9014 263.834 30.0161 264.264 30.2455C264.722 30.4748 264.952 31.0339 264.952 31.9227C264.952 32.9548 264.622 33.5856 263.963 33.815C263.332 34.0443 262.4 34.159 261.167 34.159H254.028V60.4787Z" stroke="#161616" stroke-width="2" mask="url(#path-2-outside-1_171_7738)"/>
<path d="M303.576 60.7367C303.576 61.1954 303.576 61.6828 303.576 62.1989C303.576 62.715 303.591 63.2311 303.619 63.7471C303.648 64.2632 303.705 64.7506 303.791 65.2093C303.906 65.6394 304.049 66.0265 304.221 66.3705C304.25 66.6572 304.479 66.9009 304.909 67.1016C305.34 67.3023 305.798 67.503 306.286 67.7037C306.802 67.9044 307.246 68.1481 307.619 68.4348C308.02 68.7215 308.178 69.0942 308.092 69.5529C308.092 70.1264 307.863 70.6138 307.404 71.0152C306.974 71.3879 306.429 71.5742 305.77 71.5742H296.179C295.864 71.6316 295.577 71.6602 295.319 71.6602C295.09 71.6602 294.903 71.6602 294.76 71.6602C294.187 71.6602 293.728 71.5312 293.384 71.2732C293.068 71.0152 292.911 70.4417 292.911 69.5529C292.911 68.8935 293.384 68.3058 294.33 67.7897L295.233 67.3596L296.265 66.5425C296.38 66.3705 296.48 66.1125 296.566 65.7684C296.652 65.4244 296.724 65.0517 296.781 64.6503C296.867 64.2202 296.925 63.7901 296.953 63.3601C296.982 62.9014 296.996 62.5 296.996 62.1559V43.4053C296.996 42.0291 296.767 40.7676 296.308 39.6208C295.85 38.4739 295.19 37.4991 294.33 36.6964C293.47 35.8936 292.409 35.2772 291.148 34.8471C289.915 34.3884 288.51 34.159 286.933 34.159C285.614 34.159 284.41 34.2737 283.32 34.5031C282.231 34.7037 281.184 35.0335 280.181 35.4922C279.206 35.9509 278.231 36.5387 277.257 37.2554C276.31 37.9722 275.307 38.818 274.246 39.7928V60.7367C274.246 61.1954 274.246 61.6828 274.246 62.1989C274.246 62.715 274.261 63.2311 274.289 63.7471C274.318 64.2632 274.375 64.7506 274.461 65.2093C274.576 65.6394 274.719 66.0265 274.891 66.3705C274.891 66.6285 275.135 66.8722 275.622 67.1016C276.11 67.3023 276.626 67.5173 277.171 67.7467C277.715 67.9761 278.188 68.2341 278.59 68.5208C278.991 68.8075 279.106 69.1516 278.934 69.5529C278.934 70.2124 278.719 70.7141 278.289 71.0582C277.887 71.4022 277.343 71.5742 276.655 71.5742H266.333C266.018 71.6316 265.731 71.6602 265.473 71.6602C265.244 71.6602 265.057 71.6602 264.914 71.6602C264.34 71.6602 263.867 71.5169 263.495 71.2302C263.151 70.9435 262.979 70.3844 262.979 69.5529C262.893 69.2089 262.95 68.9222 263.151 68.6928C263.351 68.4635 263.609 68.2771 263.925 68.1338C264.24 67.9617 264.584 67.8184 264.957 67.7037C265.358 67.589 265.702 67.4743 265.989 67.3596C266.161 67.2736 266.304 67.1733 266.419 67.0586C266.562 66.9152 266.706 66.7719 266.849 66.6285C267.021 66.4565 267.15 66.1985 267.236 65.8544C267.351 65.4817 267.437 65.0803 267.494 64.6503C267.552 64.1915 267.595 63.7328 267.623 63.2741C267.652 62.8153 267.666 62.414 267.666 62.0699V14.4192C267.666 13.2724 267.337 12.4123 266.677 11.8389C266.448 11.6095 265.717 11.2655 264.484 10.8067C263.538 10.5487 263.065 10.1043 263.065 9.47355C263.065 8.98615 263.237 8.61343 263.581 8.3554C263.695 8.24072 264.14 7.96834 264.914 7.53828C265.373 7.30892 265.903 7.05088 266.505 6.76418C267.136 6.47747 267.867 6.17643 268.698 5.86105C270.447 5.23029 271.651 4.91492 272.311 4.91492C273.056 4.91492 273.558 5.18729 273.816 5.73203C274.103 6.2481 274.246 6.87886 274.246 7.6243V35.0191C278.231 31.2059 283.019 29.2993 288.61 29.2993C293.284 29.2993 297.068 30.8905 299.964 34.073C301.34 35.5925 302.343 37.4991 302.974 39.7928C303.204 40.6242 303.361 41.5704 303.447 42.6312C303.533 43.692 303.576 44.9105 303.576 46.2867V60.7367Z" stroke="#161616" stroke-width="2" mask="url(#path-2-outside-1_171_7738)"/>
<path d="M314.892 56.2641C315.236 58.0417 315.838 59.6472 316.698 61.0808C317.558 62.5143 318.634 63.7328 319.924 64.7363C321.214 65.7398 322.662 66.5139 324.267 67.0586C325.902 67.6033 327.65 67.8757 329.514 67.8757C332.696 67.8757 335.521 67.1159 337.986 65.5964C339.076 64.7649 340.18 63.9192 341.298 63.059C342.445 62.1703 343.577 61.3101 344.695 60.4787C345.097 60.4787 345.469 60.622 345.813 60.9087C346.186 61.1954 346.372 61.5825 346.372 62.0699C346.372 63.1307 345.684 64.3922 344.308 65.8544C343.792 66.4278 343.247 66.9726 342.674 67.4887C342.1 68.0047 341.484 68.4635 340.825 68.8649C338.846 70.241 336.811 71.2589 334.718 71.9183C332.654 72.5777 330.46 72.9074 328.138 72.9074C322.203 72.9074 317.272 71.0295 313.344 67.2736C309.33 63.4891 307.323 58.6724 307.323 52.8236C307.323 49.5265 307.896 46.5017 309.043 43.7493C310.19 40.997 311.882 38.4739 314.118 36.1803C318.591 31.593 324.11 29.2993 330.675 29.2993C334.288 29.2993 337.284 30.0591 339.663 31.5786C341.269 32.5821 342.574 33.8723 343.577 35.4492C344.609 37.0261 345.125 38.7033 345.125 40.4809C345.125 43.4053 344.036 45.957 341.857 48.136C340.051 49.9422 337.614 51.4187 334.546 52.5656C333.342 53.053 331.994 53.483 330.503 53.8558C329.041 54.1998 327.45 54.5295 325.73 54.8449C324.726 55.0169 323.465 55.2176 321.945 55.447C320.425 55.6477 318.662 55.8627 316.655 56.0921L314.892 56.2641ZM338.072 40.3089C338.072 39.1907 337.872 38.2159 337.47 37.3845C337.097 36.553 336.567 35.8649 335.879 35.3202C335.191 34.7468 334.359 34.3167 333.385 34.03C332.438 33.7433 331.392 33.5999 330.245 33.5999C325.199 33.5999 321.2 35.5065 318.246 39.3197C315.666 42.8175 314.376 47.2042 314.376 52.4796C317.616 52.1642 320.44 51.7915 322.848 51.3614C325.256 50.9027 327.306 50.3866 328.998 49.8132C335.047 47.8062 338.072 44.6381 338.072 40.3089Z" stroke="#161616" stroke-width="2" mask="url(#path-2-outside-1_171_7738)"/>
<path d="M376.568 13.4301C376.568 13.1434 376.525 12.8997 376.439 12.699C376.381 12.4696 376.238 12.2546 376.009 12.0539C375.808 11.8532 375.493 11.6525 375.063 11.4518C374.661 11.2511 374.102 11.0361 373.385 10.8067C373.242 10.7494 373.127 10.7064 373.041 10.6777C372.955 10.6491 372.869 10.606 372.783 10.5487C372.525 10.4054 372.325 10.2333 372.181 10.0326C372.038 9.83194 371.966 9.61691 371.966 9.38754C371.966 8.92881 372.153 8.54176 372.525 8.22638C372.583 8.16904 373.041 7.911 373.901 7.45227C374.79 6.99354 375.966 6.4918 377.428 5.94706C378.345 5.60301 379.119 5.34498 379.75 5.17295C380.41 5.00093 380.897 4.91492 381.212 4.91492C382.13 4.91492 382.689 5.18729 382.89 5.73203C383.09 6.27677 383.191 7.1799 383.191 8.44141V64.6073C383.191 65.2667 383.32 65.8114 383.578 66.2415C383.864 66.6429 384.252 66.9583 384.739 67.1876L385.814 67.7037C386.474 68.0477 386.889 68.3488 387.061 68.6068C387.233 68.8362 387.319 69.1516 387.319 69.5529C387.319 70.069 387.248 70.4704 387.104 70.7571C386.961 71.0152 386.775 71.2158 386.545 71.3592C386.345 71.5026 386.115 71.5886 385.857 71.6172C385.628 71.6459 385.413 71.6602 385.212 71.6602C384.925 71.6029 384.682 71.5742 384.481 71.5742C384.28 71.5742 384.108 71.5742 383.965 71.5742H378.417C377.528 71.5742 377.084 69.7536 377.084 66.1125C375.306 68.3488 373.299 70.0404 371.063 71.1872C368.855 72.334 366.404 72.9074 363.709 72.9074C358.004 72.9074 353.445 70.8431 350.033 66.7146C346.65 62.6146 344.958 57.6833 344.958 51.9205C344.958 45.7563 346.779 40.5096 350.42 36.1803C354.291 31.593 359.251 29.2993 365.3 29.2993C367.451 29.2993 369.443 29.6147 371.278 30.2455C372.597 30.7329 374.36 31.679 376.568 33.0839V13.4301ZM376.568 37.2984C375.048 36.467 373.744 35.8076 372.654 35.3202C371.565 34.8328 370.69 34.4744 370.031 34.245C369.371 34.0157 368.683 33.858 367.967 33.7719C367.279 33.6573 366.533 33.5999 365.73 33.5999C361.43 33.5999 357.989 35.4492 355.409 39.1477C353.144 42.3875 352.011 46.2724 352.011 50.8023C352.011 53.2393 352.255 55.4326 352.742 57.3822C353.23 59.3319 353.975 61.0664 354.979 62.586C357.33 66.1125 360.828 67.8757 365.472 67.8757C366.275 67.8757 367.121 67.7897 368.01 67.6177C368.898 67.417 369.759 67.1589 370.59 66.8436C371.421 66.5282 372.21 66.1411 372.955 65.6824C373.701 65.2237 374.346 64.7219 374.891 64.1772C375.607 63.4604 376.066 62.758 376.267 62.0699C376.467 61.3531 376.568 60.4357 376.568 59.3175V37.2984Z" stroke="#161616" stroke-width="2" mask="url(#path-2-outside-1_171_7738)"/>
</svg>
